<svg id="visual" viewBox="0 0 600 600" width="600" height="600" xmlns="http://www.w3.org/2000/svg" xmlns:xlink="http://www.w3.org/1999/xlink" version="1.1"><rect x="0" y="0" width="600" height="600" fill="#001220"></rect><defs><linearGradient id="grad1_0" x1="0%" y1="0%" x2="100%" y2="100%"><stop offset="30%" stop-color="#fbae3c" stop-opacity="1"></stop><stop offset="70%" stop-color="#fbae3c" stop-opacity="1"></stop></linearGradient></defs><defs><linearGradient id="grad1_1" x1="0%" y1="0%" x2="100%" y2="100%"><stop offset="30%" stop-color="#fbae3c" stop-opacity="1"></stop><stop offset="70%" stop-color="#f48350" stop-opacity="1"></stop></linearGradient></defs><defs><linearGradient id="grad1_2" x1="0%" y1="0%" x2="100%" y2="100%"><stop offset="30%" stop-color="#d96162" stop-opacity="1"></stop><stop offset="70%" stop-color="#f48350" stop-opacity="1"></stop></linearGradient></defs><defs><linearGradient id="grad1_3" x1="0%" y1="0%" x2="100%" y2="100%"><stop offset="30%" stop-color="#d96162" stop-opacity="1"></stop><stop offset="70%" stop-color="#af4b6d" stop-opacity="1"></stop></linearGradient></defs><defs><linearGradient id="grad1_4" x1="0%" y1="0%" x2="100%" y2="100%"><stop offset="30%" stop-color="#7c3e6b" stop-opacity="1"></stop><stop offset="70%" stop-color="#af4b6d" stop-opacity="1"></stop></linearGradient></defs><defs><linearGradient id="grad1_5" x1="0%" y1="0%" x2="100%" y2="100%"><stop offset="30%" stop-color="#7c3e6b" stop-opacity="1"></stop><stop offset="70%" stop-color="#49335c" stop-opacity="1"></stop></linearGradient></defs><defs><linearGradient id="grad1_6" x1="0%" y1="0%" x2="100%" y2="100%"><stop offset="30%" stop-color="#1d2540" stop-opacity="1"></stop><stop offset="70%" stop-color="#49335c" stop-opacity="1"></stop></linearGradient></defs><defs><linearGradient id="grad1_7" x1="0%" y1="0%" x2="100%" y2="100%"><stop offset="30%" stop-color="#1d2540" stop-opacity="1"></stop><stop offset="70%" stop-color="#001220" stop-opacity="1"></stop></linearGradient></defs><defs><linearGradient id="grad2_0" x1="0%" y1="0%" x2="100%" y2="100%"><stop offset="30%" stop-color="#fbae3c" stop-opacity="1"></stop><stop offset="70%" stop-color="#fbae3c" stop-opacity="1"></stop></linearGradient></defs><defs><linearGradient id="grad2_1" x1="0%" y1="0%" x2="100%" y2="100%"><stop offset="30%" stop-color="#f48350" stop-opacity="1"></stop><stop offset="70%" stop-color="#fbae3c" stop-opacity="1"></stop></linearGradient></defs><defs><linearGradient id="grad2_2" x1="0%" y1="0%" x2="100%" y2="100%"><stop offset="30%" stop-color="#f48350" stop-opacity="1"></stop><stop offset="70%" stop-color="#d96162" stop-opacity="1"></stop></linearGradient></defs><defs><linearGradient id="grad2_3" x1="0%" y1="0%" x2="100%" y2="100%"><stop offset="30%" stop-color="#af4b6d" stop-opacity="1"></stop><stop offset="70%" stop-color="#d96162" stop-opacity="1"></stop></linearGradient></defs><defs><linearGradient id="grad2_4" x1="0%" y1="0%" x2="100%" y2="100%"><stop offset="30%" stop-color="#af4b6d" stop-opacity="1"></stop><stop offset="70%" stop-color="#7c3e6b" stop-opacity="1"></stop></linearGradient></defs><defs><linearGradient id="grad2_5" x1="0%" y1="0%" x2="100%" y2="100%"><stop offset="30%" stop-color="#49335c" stop-opacity="1"></stop><stop offset="70%" stop-color="#7c3e6b" stop-opacity="1"></stop></linearGradient></defs><defs><linearGradient id="grad2_6" x1="0%" y1="0%" x2="100%" y2="100%"><stop offset="30%" stop-color="#49335c" stop-opacity="1"></stop><stop offset="70%" stop-color="#1d2540" stop-opacity="1"></stop></linearGradient></defs><defs><linearGradient id="grad2_7" x1="0%" y1="0%" x2="100%" y2="100%"><stop offset="30%" stop-color="#001220" stop-opacity="1"></stop><stop offset="70%" stop-color="#1d2540" stop-opacity="1"></stop></linearGradient></defs><g transform="translate(600, 0)"><path d="M0 424.3C-23.2 403.6 -46.5 382.9 -75.3 378.6C-104.2 374.3 -138.6 386.3 -147.7 356.6C-156.8 326.9 -140.5 255.5 -157.8 236.1C-175.1 216.8 -226 249.5 -248.2 248.2C-270.4 246.9 -264 211.7 -292.7 195.6C-321.4 179.4 -385.2 182.4 -392 162.4C-398.7 142.3 -348.4 99.4 -344.3 68.5C-340.1 37.6 -382.2 18.8 -424.3 0L0 0Z" fill="#0c1c30"></path><path d="M0 371.2C-20.3 353.1 -40.6 335 -65.9 331.3C-91.1 327.5 -121.3 338 -129.3 312C-137.2 286.1 -122.9 223.6 -138.1 206.6C-153.2 189.7 -197.7 218.3 -217.2 217.2C-236.6 216.1 -231 185.2 -256.1 171.1C-281.2 157 -337.1 159.6 -343 142.1C-348.9 124.6 -304.8 86.9 -301.2 59.9C-297.6 32.9 -334.4 16.4 -371.2 0L0 0Z" fill="#312c4f"></path><path d="M0 318.2C-17.4 302.7 -34.8 287.2 -56.5 283.9C-78.1 280.7 -104 289.7 -110.8 267.5C-117.6 245.2 -105.4 191.6 -118.3 177.1C-131.3 162.6 -169.5 187.1 -186.1 186.1C-202.8 185.2 -198 158.8 -219.5 146.7C-241 134.6 -288.9 136.8 -294 121.8C-299 106.8 -261.3 74.5 -258.2 51.4C-255.1 28.2 -286.6 14.1 -318.2 0L0 0Z" fill="#623965"></path><path d="M0 265.2C-14.5 252.2 -29 239.3 -47.1 236.6C-65.1 233.9 -86.6 241.4 -92.3 222.9C-98 204.3 -87.8 159.7 -98.6 147.6C-109.4 135.5 -141.2 155.9 -155.1 155.1C-169 154.3 -165 132.3 -182.9 122.2C-200.9 112.1 -240.8 114 -245 101.5C-249.2 89 -217.7 62.1 -215.2 42.8C-212.6 23.5 -238.9 11.7 -265.2 0L0 0Z" fill="#96446e"></path><path d="M0 212.1C-11.6 201.8 -23.2 191.5 -37.7 189.3C-52.1 187.1 -69.3 193.2 -73.9 178.3C-78.4 163.5 -70.2 127.8 -78.9 118.1C-87.5 108.4 -113 124.7 -124.1 124.1C-135.2 123.5 -132 105.8 -146.3 97.8C-160.7 89.7 -192.6 91.2 -196 81.2C-199.4 71.2 -174.2 49.7 -172.1 34.2C-170.1 18.8 -191.1 9.4 -212.1 0L0 0Z" fill="#c55469"></path><path d="M0 159.1C-8.7 151.3 -17.4 143.6 -28.2 142C-39.1 140.3 -52 144.9 -55.4 133.7C-58.8 122.6 -52.7 95.8 -59.2 88.6C-65.7 81.3 -84.7 93.5 -93.1 93.1C-101.4 92.6 -99 79.4 -109.8 73.3C-120.5 67.3 -144.5 68.4 -147 60.9C-149.5 53.4 -130.6 37.3 -129.1 25.7C-127.5 14.1 -143.3 7 -159.1 0L0 0Z" fill="#e9705a"></path><path d="M0 106.1C-5.8 100.9 -11.6 95.7 -18.8 94.6C-26 93.6 -34.7 96.6 -36.9 89.2C-39.2 81.7 -35.1 63.9 -39.4 59C-43.8 54.2 -56.5 62.4 -62 62C-67.6 61.7 -66 52.9 -73.2 48.9C-80.3 44.9 -96.3 45.6 -98 40.6C-99.7 35.6 -87.1 24.8 -86.1 17.1C-85 9.4 -95.5 4.7 -106.1 0L0 0Z" fill="#fa9845"></path><path d="M0 53C-2.9 50.4 -5.8 47.9 -9.4 47.3C-13 46.8 -17.3 48.3 -18.5 44.6C-19.6 40.9 -17.6 31.9 -19.7 29.5C-21.9 27.1 -28.2 31.2 -31 31C-33.8 30.9 -33 26.5 -36.6 24.4C-40.2 22.4 -48.2 22.8 -49 20.3C-49.8 17.8 -43.5 12.4 -43 8.6C-42.5 4.7 -47.8 2.3 -53 0L0 0Z" fill="#fbae3c"></path></g><g transform="translate(0, 600)"><path d="M0 -424.3C18.2 -373.4 36.5 -322.6 63.4 -318.8C90.3 -314.9 125.9 -358 150.4 -363.1C174.9 -368.2 188.2 -335.4 214.5 -320.9C240.7 -306.5 279.9 -310.5 282.1 -282.1C284.4 -253.8 249.6 -193.1 242 -161.7C234.3 -130.2 253.7 -127.9 292.9 -121.3C332 -114.7 390.9 -103.7 416.1 -82.8C441.3 -61.8 432.8 -30.9 424.3 0L0 0Z" fill="#0c1c30"></path><path d="M0 -371.2C16 -326.8 31.9 -282.3 55.5 -278.9C79 -275.5 110.2 -313.2 131.6 -317.7C153 -322.2 164.7 -293.5 187.6 -280.8C210.6 -268.2 244.9 -271.7 246.9 -246.9C248.8 -222.1 218.4 -169 211.7 -141.5C205 -113.9 222 -111.9 256.3 -106.1C290.5 -100.4 342.1 -90.7 364.1 -72.4C386.1 -54.1 378.7 -27 371.2 0L0 0Z" fill="#312c4f"></path><path d="M0 -318.2C13.7 -280.1 27.4 -242 47.6 -239.1C67.7 -236.2 94.4 -268.5 112.8 -272.3C131.1 -276.2 141.1 -251.5 160.8 -240.7C180.5 -229.9 209.9 -232.9 211.6 -211.6C213.3 -190.3 187.2 -144.9 181.5 -121.3C175.7 -97.7 190.3 -96 219.7 -91C249 -86 293.2 -77.8 312.1 -62.1C331 -46.4 324.6 -23.2 318.2 0L0 0Z" fill="#623965"></path><path d="M0 -265.2C11.4 -233.4 22.8 -201.6 39.6 -199.2C56.5 -196.8 78.7 -223.7 94 -226.9C109.3 -230.1 117.6 -209.6 134 -200.6C150.4 -191.6 174.9 -194.1 176.3 -176.3C177.7 -158.6 156 -120.7 151.2 -101C146.4 -81.4 158.6 -80 183 -75.8C207.5 -71.7 244.3 -64.8 260.1 -51.7C275.8 -38.6 270.5 -19.3 265.2 0L0 0Z" fill="#96446e"></path><path d="M0 -212.1C9.1 -186.7 18.2 -161.3 31.7 -159.4C45.2 -157.4 63 -179 75.2 -181.5C87.4 -184.1 94.1 -167.7 107.2 -160.5C120.4 -153.3 140 -155.2 141.1 -141.1C142.2 -126.9 124.8 -96.6 121 -80.8C117.1 -65.1 126.9 -64 146.4 -60.7C166 -57.3 195.5 -51.9 208.1 -41.4C220.7 -30.9 216.4 -15.5 212.1 0L0 0Z" fill="#c55469"></path><path d="M0 -159.1C6.8 -140 13.7 -121 23.8 -119.5C33.9 -118.1 47.2 -134.2 56.4 -136.2C65.6 -138.1 70.6 -125.8 80.4 -120.4C90.3 -114.9 105 -116.4 105.8 -105.8C106.6 -95.2 93.6 -72.4 90.7 -60.6C87.9 -48.8 95.1 -48 109.8 -45.5C124.5 -43 146.6 -38.9 156 -31C165.5 -23.2 162.3 -11.6 159.1 0L0 0Z" fill="#e9705a"></path><path d="M0 -106.1C4.6 -93.4 9.1 -80.7 15.9 -79.7C22.6 -78.7 31.5 -89.5 37.6 -90.8C43.7 -92.1 47 -83.8 53.6 -80.2C60.2 -76.6 70 -77.6 70.5 -70.5C71.1 -63.4 62.4 -48.3 60.5 -40.4C58.6 -32.6 63.4 -32 73.2 -30.3C83 -28.7 97.7 -25.9 104 -20.7C110.3 -15.5 108.2 -7.7 106.1 0L0 0Z" fill="#fa9845"></path><path d="M0 -53C2.3 -46.7 4.6 -40.3 7.9 -39.8C11.3 -39.4 15.7 -44.7 18.8 -45.4C21.9 -46 23.5 -41.9 26.8 -40.1C30.1 -38.3 35 -38.8 35.3 -35.3C35.5 -31.7 31.2 -24.1 30.2 -20.2C29.3 -16.3 31.7 -16 36.6 -15.2C41.5 -14.3 48.9 -13 52 -10.3C55.2 -7.7 54.1 -3.9 53 0L0 0Z" fill="#fbae3c"></path></g></svg>